<svg preserveAspectRatio="none" width="100%" height="100%" overflow="visible" style="display: block;" viewBox="0 0 88.0022 88.0022" fill="none" xmlns="http://www.w3.org/2000/svg">
<g id="Image (Error loading image)">
<path id="Vector" d="M66 16H22C18.6863 16 16 18.6863 16 22V66C16 69.3137 18.6863 72 22 72H66C69.3137 72 72 69.3137 72 66V22C72 18.6863 69.3137 16 66 16Z" stroke="var(--stroke-0, black)" stroke-width="3.7" stroke-linejoin="round"/>
<path id="Vector_2" d="M16 58L32 40L64 72" stroke="var(--stroke-0, black)" stroke-width="3.7" stroke-linejoin="round"/>
<path id="Vector_3" d="M53 42C56.866 42 60 38.866 60 35C60 31.134 56.866 28 53 28C49.134 28 46 31.134 46 35C46 38.866 49.134 42 53 42Z" stroke="var(--stroke-0, black)" stroke-width="3.7" stroke-linejoin="round"/>
</g>
</svg>
