<svg preserveAspectRatio="none" width="100%" height="100%" overflow="visible" style="display: block;" viewBox="0 0 19.9904 19.9904" fill="none" xmlns="http://www.w3.org/2000/svg">
<g id="Icon">
<path id="Vector" d="M1.66587 5.83053L5.3391 2.1573C5.49408 2.0014 5.67837 1.87771 5.88137 1.79337C6.08437 1.70903 6.30205 1.66569 6.52187 1.66587H13.4685C13.6884 1.66569 13.906 1.70903 14.109 1.79337C14.312 1.87771 14.4963 2.0014 14.6513 2.1573L18.3245 5.83053" stroke="var(--stroke-0, #C4B09A)" stroke-width="1.2494" stroke-linecap="round" stroke-linejoin="round"/>
<path id="Vector_2" d="M3.33173 9.9952V16.6587C3.33173 17.1005 3.50724 17.5242 3.81965 17.8366C4.13207 18.149 4.55578 18.3245 4.9976 18.3245H14.9928C15.4346 18.3245 15.8583 18.149 16.1707 17.8366C16.4832 17.5242 16.6587 17.1005 16.6587 16.6587V9.9952" stroke="var(--stroke-0, #C4B09A)" stroke-width="1.2494" stroke-linecap="round" stroke-linejoin="round"/>
<path id="Vector_3" d="M12.494 18.3245V14.9928C12.494 14.551 12.3185 14.1273 12.0061 13.8149C11.6937 13.5024 11.2699 13.3269 10.8281 13.3269H9.16227C8.72045 13.3269 8.29673 13.5024 7.98432 13.8149C7.67191 14.1273 7.4964 14.551 7.4964 14.9928V18.3245" stroke="var(--stroke-0, #C4B09A)" stroke-width="1.2494" stroke-linecap="round" stroke-linejoin="round"/>
<path id="Vector_4" d="M1.66587 5.83053H18.3245" stroke="var(--stroke-0, #C4B09A)" stroke-width="1.2494" stroke-linecap="round" stroke-linejoin="round"/>
<path id="Vector_5" d="M18.3245 5.83053V8.32933C18.3245 8.77115 18.149 9.19487 17.8366 9.50728C17.5242 9.81969 17.1005 9.9952 16.6587 9.9952C16.172 9.96841 15.7072 9.78426 15.3343 9.47045C15.2349 9.39863 15.1154 9.35997 14.9928 9.35997C14.8702 9.35997 14.7507 9.39863 14.6513 9.47045C14.2784 9.78426 13.8136 9.96841 13.3269 9.9952C12.8403 9.96841 12.3755 9.78426 12.0026 9.47045C11.9032 9.39863 11.7837 9.35997 11.6611 9.35997C11.5384 9.35997 11.4189 9.39863 11.3196 9.47045C10.9466 9.78426 10.4819 9.96841 9.9952 9.9952C9.50855 9.96841 9.04377 9.78426 8.67084 9.47045C8.57145 9.39863 8.45195 9.35997 8.32933 9.35997C8.20671 9.35997 8.08722 9.39863 7.98783 9.47045C7.6149 9.78426 7.15012 9.96841 6.66347 9.9952C6.17681 9.96841 5.71203 9.78426 5.3391 9.47045C5.23972 9.39863 5.12022 9.35997 4.9976 9.35997C4.87498 9.35997 4.75548 9.39863 4.6561 9.47045C4.28317 9.78426 3.81839 9.96841 3.33173 9.9952C2.88992 9.9952 2.4662 9.81969 2.15379 9.50728C1.84138 9.19487 1.66587 8.77115 1.66587 8.32933V5.83053" stroke="var(--stroke-0, #C4B09A)" stroke-width="1.2494" stroke-linecap="round" stroke-linejoin="round"/>
</g>
</svg>
