<svg preserveAspectRatio="none" width="100%" height="100%" overflow="visible" style="display: block;" viewBox="0 0 111.994 55.988" fill="none" xmlns="http://www.w3.org/2000/svg">
<g id="Icon" opacity="0.4">
<path id="Vector" d="M55.997 27.994C43.5552 12.4418 29.5582 9.33133 14.006 18.6627C26.4478 18.6627 40.4448 21.7731 55.997 27.994C71.5492 34.2149 85.5462 31.1044 97.988 18.6627C82.4358 15.5522 68.4388 18.6627 55.997 27.994Z" fill="var(--fill-0, #B8963E)"/>
<path id="Vector_2" d="M55.997 27.994C43.5552 43.5462 29.5582 46.6567 14.006 37.3253C26.4478 37.3253 40.4448 34.2149 55.997 27.994C71.5492 21.7731 85.5462 24.8836 97.988 37.3253C82.4358 40.4358 68.4388 37.3253 55.997 27.994Z" fill="var(--fill-0, #B8963E)"/>
<path id="Vector_3" d="M55.997 30.7934C57.5431 30.7934 58.7964 29.5401 58.7964 27.994C58.7964 26.4479 57.5431 25.1946 55.997 25.1946C54.4509 25.1946 53.1976 26.4479 53.1976 27.994C53.1976 29.5401 54.4509 30.7934 55.997 30.7934Z" fill="var(--fill-0, #B8963E)"/>
</g>
</svg>
