<svg preserveAspectRatio="none" width="100%" height="100%" overflow="visible" style="display: block;" viewBox="0 0 12.9827 12.9827" fill="none" xmlns="http://www.w3.org/2000/svg">
<g id="Icon" clip-path="url(#clip0_15_25)">
<path id="Vector" d="M9.19608 1.08189H3.78662C2.29284 1.08189 1.08189 2.29284 1.08189 3.78662V9.19608C1.08189 10.6899 2.29284 11.9008 3.78662 11.9008H9.19608C10.6899 11.9008 11.9008 10.6899 11.9008 9.19608V3.78662C11.9008 2.29284 10.6899 1.08189 9.19608 1.08189Z" stroke="var(--stroke-0, #B8963E)" stroke-width="0.811419" stroke-linecap="round" stroke-linejoin="round"/>
<path id="Vector_2" d="M8.65513 6.15055C8.72189 6.60075 8.64499 7.06054 8.43538 7.46452C8.22576 7.8685 7.8941 8.19609 7.48757 8.40071C7.08104 8.60533 6.62034 8.67655 6.17099 8.60425C5.72165 8.53194 5.30655 8.31979 4.98473 7.99797C4.66291 7.67615 4.45076 7.26105 4.37845 6.81171C4.30615 6.36236 4.37737 5.90166 4.58199 5.49513C4.78661 5.0886 5.1142 4.75694 5.51818 4.54732C5.92216 4.33771 6.38195 4.26081 6.83215 4.32757C7.29137 4.39566 7.71651 4.60965 8.04478 4.93792C8.37305 5.26619 8.58704 5.69133 8.65513 6.15055Z" stroke="var(--stroke-0, #B8963E)" stroke-width="0.811419" stroke-linecap="round" stroke-linejoin="round"/>
<path id="Vector_3" d="M9.46655 3.51615H9.47196" stroke="var(--stroke-0, #B8963E)" stroke-width="0.811419" stroke-linecap="round" stroke-linejoin="round"/>
</g>
<defs>
<clipPath id="clip0_15_25">
<rect width="12.9827" height="12.9827" fill="white"/>
</clipPath>
</defs>
</svg>
