<svg preserveAspectRatio="none" width="100%" height="100%" overflow="visible" style="display: block;" viewBox="0 0 19.9904 19.9904" fill="none" xmlns="http://www.w3.org/2000/svg">
<g id="Icon">
<path id="Vector" d="M4.9976 1.66587L2.4988 4.9976V16.6587C2.4988 17.1005 2.67431 17.5242 2.98672 17.8366C3.29913 18.149 3.72285 18.3245 4.16467 18.3245H15.8257C16.2675 18.3245 16.6913 18.149 17.0037 17.8366C17.3161 17.5242 17.4916 17.1005 17.4916 16.6587V4.9976L14.9928 1.66587H4.9976Z" stroke="var(--stroke-0, #C4B09A)" stroke-width="1.2494" stroke-linecap="round" stroke-linejoin="round"/>
<path id="Vector_2" d="M2.4988 4.9976H17.4916" stroke="var(--stroke-0, #C4B09A)" stroke-width="1.2494" stroke-linecap="round" stroke-linejoin="round"/>
<path id="Vector_3" d="M13.3269 8.32933C13.3269 9.21296 12.9759 10.0604 12.3511 10.6852C11.7263 11.31 10.8788 11.6611 9.9952 11.6611C9.11157 11.6611 8.26413 11.31 7.63931 10.6852C7.01449 10.0604 6.66347 9.21296 6.66347 8.32933" stroke="var(--stroke-0, #C4B09A)" stroke-width="1.2494" stroke-linecap="round" stroke-linejoin="round"/>
</g>
</svg>
