<svg preserveAspectRatio="none" width="100%" height="100%" overflow="visible" style="display: block;" viewBox="0 0 12.9827 12.9827" fill="none" xmlns="http://www.w3.org/2000/svg">
<g id="Icon" clip-path="url(#clip0_15_11)">
<path id="Vector" d="M11.9008 9.1528V10.7756C11.9014 10.9263 11.8706 11.0754 11.8102 11.2135C11.7499 11.3515 11.6613 11.4754 11.5503 11.5772C11.4393 11.6791 11.3082 11.7566 11.1655 11.8049C11.0228 11.8532 10.8716 11.8711 10.7215 11.8575C9.05697 11.6767 7.45802 11.1079 6.05318 10.1968C4.74617 9.3663 3.63804 8.25817 2.80751 6.95115C1.8933 5.53994 1.32437 3.93321 1.14681 2.26115C1.13329 2.11156 1.15107 1.9608 1.19901 1.81846C1.24695 1.67611 1.324 1.54531 1.42527 1.43438C1.52653 1.32345 1.64978 1.23482 1.78717 1.17413C1.92456 1.11345 2.07309 1.08203 2.22329 1.08189H3.84612C4.10865 1.07931 4.36316 1.17227 4.56221 1.34346C4.76126 1.51464 4.89127 1.75237 4.92802 2.01232C4.99651 2.53166 5.12354 3.04159 5.30668 3.53238C5.37946 3.72599 5.39521 3.93642 5.35207 4.13871C5.30892 4.34101 5.20869 4.52669 5.06325 4.67377L4.37625 5.36077C5.14632 6.71506 6.26764 7.83638 7.62193 8.60645L8.30893 7.91945C8.45601 7.77401 8.64169 7.67378 8.84399 7.63063C9.04628 7.58749 9.25671 7.60324 9.45032 7.67602C9.94111 7.85916 10.451 7.98619 10.9704 8.05468C11.2332 8.09175 11.4731 8.22411 11.6447 8.42658C11.8162 8.62905 11.9074 8.88751 11.9008 9.1528Z" stroke="var(--stroke-0, #B8963E)" stroke-width="0.811419" stroke-linecap="round" stroke-linejoin="round"/>
</g>
<defs>
<clipPath id="clip0_15_11">
<rect width="12.9827" height="12.9827" fill="white"/>
</clipPath>
</defs>
</svg>
