<svg preserveAspectRatio="none" width="100%" height="100%" overflow="visible" style="display: block;" viewBox="0 0 19.9904 19.9904" fill="none" xmlns="http://www.w3.org/2000/svg">
<g id="Icon">
<path id="Vector" d="M12.494 17.4916V10.8281C12.494 10.6072 12.4062 10.3954 12.25 10.2392C12.0938 10.083 11.882 9.9952 11.6611 9.9952H8.32933C8.10843 9.9952 7.89657 10.083 7.74036 10.2392C7.58416 10.3954 7.4964 10.6072 7.4964 10.8281V17.4916" stroke="var(--stroke-0, #C4B09A)" stroke-width="1.2494" stroke-linecap="round" stroke-linejoin="round"/>
<path id="Vector_2" d="M2.4988 8.32933C2.49874 8.08701 2.55155 7.84758 2.65355 7.62777C2.75555 7.40795 2.90427 7.21303 3.08935 7.05661L8.91988 2.05984C9.22056 1.80572 9.60152 1.6663 9.9952 1.6663C10.3889 1.6663 10.7698 1.80572 11.0705 2.05984L16.9011 7.05661C17.0861 7.21303 17.2349 7.40795 17.3369 7.62777C17.4388 7.84758 17.4917 8.08701 17.4916 8.32933V15.8257C17.4916 16.2675 17.3161 16.6913 17.0037 17.0037C16.6913 17.3161 16.2675 17.4916 15.8257 17.4916H4.16467C3.72285 17.4916 3.29913 17.3161 2.98672 17.0037C2.67431 16.6913 2.4988 16.2675 2.4988 15.8257V8.32933Z" stroke="var(--stroke-0, #C4B09A)" stroke-width="1.2494" stroke-linecap="round" stroke-linejoin="round"/>
</g>
</svg>
