<svg width="180" height="25" viewBox="0 0 180 25" fill="none" xmlns="http://www.w3.org/2000/svg">
<path d="M0.576 6.85266C0.842667 6.86333 1.184 6.874 1.6 6.88466C2.016 6.89533 2.432 6.90066 2.848 6.90066C3.37067 6.90066 3.86667 6.89533 4.336 6.88466C4.80533 6.874 5.136 6.86866 5.328 6.86866C6.288 6.86866 7.07733 6.986 7.696 7.22066C8.32533 7.44466 8.79467 7.76466 9.104 8.18066C9.41333 8.59666 9.568 9.08733 9.568 9.65266C9.568 10.0047 9.49867 10.3673 9.36 10.7407C9.22133 11.1033 8.98133 11.4393 8.64 11.7487C8.29867 12.058 7.82933 12.314 7.232 12.5167C6.64533 12.7087 5.89333 12.8047 4.976 12.8047H3.44V12.4847H4.816C5.488 12.4847 6 12.3673 6.352 12.1327C6.71467 11.8873 6.95467 11.5673 7.072 11.1727C7.2 10.7673 7.264 10.3193 7.264 9.82866C7.264 8.986 7.09867 8.33533 6.768 7.87666C6.43733 7.40733 5.86667 7.17266 5.056 7.17266C4.61867 7.17266 4.33067 7.26333 4.192 7.44466C4.064 7.626 4 7.994 4 8.54866V16.4847C4 16.8687 4.032 17.1567 4.096 17.3487C4.16 17.5407 4.27733 17.6687 4.448 17.7327C4.62933 17.7967 4.89067 17.8393 5.232 17.8607V18.1807C4.96533 18.1593 4.624 18.1487 4.208 18.1487C3.792 18.138 3.37067 18.1327 2.944 18.1327C2.464 18.1327 2.016 18.138 1.6 18.1487C1.184 18.1487 0.842667 18.1593 0.576 18.1807V17.8607C0.928 17.8393 1.18933 17.7967 1.36 17.7327C1.54133 17.6687 1.65867 17.5407 1.712 17.3487C1.776 17.1567 1.808 16.8687 1.808 16.4847V8.54866C1.808 8.154 1.776 7.866 1.712 7.68466C1.65867 7.49266 1.54133 7.36466 1.36 7.30066C1.18933 7.226 0.928 7.18333 0.576 7.17266V6.85266ZM3.44 12.5327C3.94133 12.554 4.35733 12.5807 4.688 12.6127C5.02933 12.634 5.31733 12.6553 5.552 12.6767C5.79733 12.698 6.016 12.7247 6.208 12.7567C7.09333 12.842 7.744 13.05 8.16 13.3807C8.58667 13.7007 8.86933 14.1913 9.008 14.8527L9.376 16.5007C9.472 16.938 9.57333 17.2527 9.68 17.4447C9.79733 17.626 9.96267 17.7113 10.176 17.7007C10.3253 17.7007 10.4533 17.6633 10.56 17.5887C10.6667 17.5033 10.7733 17.3913 10.88 17.2527L11.104 17.4447C10.8373 17.7753 10.5547 18.0207 10.256 18.1807C9.95733 18.33 9.57867 18.4047 9.12 18.4047C8.608 18.4047 8.176 18.2873 7.824 18.0527C7.472 17.8073 7.232 17.3487 7.104 16.6767L6.8 15.0767C6.71467 14.6287 6.61333 14.234 6.496 13.8927C6.38933 13.5513 6.24 13.2847 6.048 13.0927C5.856 12.9007 5.57333 12.8047 5.2 12.8047H3.472L3.44 12.5327ZM20.0601 6.85266V7.17266C19.7188 7.18333 19.4575 7.226 19.2761 7.30066C19.1055 7.36466 18.9881 7.49266 18.9241 7.68466C18.8601 7.866 18.8281 8.154 18.8281 8.54866V16.4847C18.8281 16.8687 18.8601 17.1567 18.9241 17.3487C18.9881 17.5407 19.1055 17.6687 19.2761 17.7327C19.4575 17.7967 19.7188 17.8393 20.0601 17.8607V18.1807C19.7935 18.1593 19.4521 18.1487 19.0361 18.1487C18.6201 18.138 18.1988 18.1327 17.7721 18.1327C17.2921 18.1327 16.8441 18.138 16.4281 18.1487C16.0121 18.1487 15.6708 18.1593 15.4041 18.1807V17.8607C15.7561 17.8393 16.0175 17.7967 16.1881 17.7327C16.3695 17.6687 16.4868 17.5407 16.5401 17.3487C16.6041 17.1567 16.6361 16.8687 16.6361 16.4847V8.54866C16.6361 8.154 16.6041 7.866 16.5401 7.68466C16.4868 7.49266 16.3695 7.36466 16.1881 7.30066C16.0175 7.226 15.7561 7.18333 15.4041 7.17266V6.85266C15.6708 6.86333 16.0121 6.874 16.4281 6.88466C16.8441 6.89533 17.2921 6.90066 17.7721 6.90066C18.1988 6.90066 18.6201 6.89533 19.0361 6.88466C19.4521 6.874 19.7935 6.86333 20.0601 6.85266ZM39.8723 6.85266V7.17266C39.6589 7.24733 39.4243 7.41266 39.1683 7.66866C38.9123 7.92466 38.6989 8.33533 38.5283 8.90066L35.6323 18.2287C35.5683 18.2287 35.4989 18.2233 35.4243 18.2127C35.3603 18.2127 35.2909 18.2127 35.2163 18.2127C35.1523 18.2127 35.0829 18.2127 35.0083 18.2127C34.9443 18.2233 34.8803 18.2287 34.8163 18.2287L31.4243 8.08466C31.3069 7.722 31.1683 7.482 31.0083 7.36466C30.8589 7.24733 30.7043 7.18333 30.5443 7.17266V6.85266C30.8003 6.86333 31.1096 6.874 31.4723 6.88466C31.8456 6.89533 32.2136 6.90066 32.5763 6.90066C33.0243 6.90066 33.4456 6.89533 33.8403 6.88466C34.2349 6.874 34.5549 6.86333 34.8003 6.85266V7.17266C34.4696 7.18333 34.2136 7.22066 34.0323 7.28466C33.8509 7.338 33.7443 7.46066 33.7123 7.65266C33.6909 7.834 33.7443 8.122 33.8723 8.51666L36.1763 15.6047L35.8563 16.1167L37.7763 10.0527C38.0109 9.32733 38.1176 8.75666 38.0963 8.34066C38.0856 7.92466 37.9629 7.63133 37.7283 7.46066C37.4936 7.27933 37.1576 7.18333 36.7203 7.17266V6.85266C37.0723 6.86333 37.4029 6.874 37.7123 6.88466C38.0323 6.89533 38.3523 6.90066 38.6723 6.90066C38.9176 6.90066 39.1363 6.89533 39.3283 6.88466C39.5309 6.874 39.7123 6.86333 39.8723 6.85266ZM28.5443 6.85266V7.17266C28.2989 7.194 28.1283 7.26333 28.0323 7.38066C27.9363 7.498 27.8936 7.65266 27.9043 7.84466C27.9256 8.026 27.9789 8.25 28.0643 8.51666L30.5123 15.7807L30.0963 16.2927L32.2083 9.92466L32.4483 10.3407L29.8723 18.2287C29.8083 18.2287 29.7389 18.2233 29.6643 18.2127C29.6003 18.2127 29.5309 18.2127 29.4563 18.2127C29.3923 18.2127 29.3229 18.2127 29.2483 18.2127C29.1843 18.2233 29.1203 18.2287 29.0563 18.2287L25.5363 8.19666C25.3976 7.802 25.2269 7.53533 25.0243 7.39666C24.8323 7.258 24.6562 7.18333 24.4962 7.17266V6.85266C24.7736 6.86333 25.1096 6.874 25.5043 6.88466C25.8989 6.89533 26.2829 6.90066 26.6562 6.90066C27.0509 6.90066 27.4136 6.89533 27.7443 6.88466C28.0749 6.874 28.3416 6.86333 28.5443 6.85266ZM48.4136 6.80466L52.3016 16.8367C52.4616 17.2207 52.6323 17.4873 52.8136 17.6367C53.0056 17.7753 53.1816 17.85 53.3416 17.8607V18.1807C53.0643 18.1593 52.7283 18.1487 52.3336 18.1487C51.9496 18.138 51.555 18.1327 51.1496 18.1327C50.6803 18.1327 50.243 18.138 49.8376 18.1487C49.4323 18.1487 49.1016 18.1593 48.8456 18.1807V17.8607C49.3896 17.8393 49.7363 17.7487 49.8856 17.5887C50.035 17.418 50.003 17.0607 49.7896 16.5167L46.9736 8.91666L47.2616 8.56466L44.7016 15.2047C44.499 15.738 44.3763 16.1753 44.3336 16.5167C44.291 16.858 44.3176 17.1247 44.4136 17.3167C44.5096 17.5087 44.6696 17.6473 44.8936 17.7327C45.1176 17.8073 45.395 17.85 45.7256 17.8607V18.1807C45.3843 18.1593 45.0536 18.1487 44.7336 18.1487C44.4136 18.138 44.0936 18.1327 43.7736 18.1327C43.539 18.1327 43.315 18.138 43.1016 18.1487C42.899 18.1487 42.7176 18.1593 42.5576 18.1807V17.8607C42.7923 17.8073 43.0216 17.6687 43.2456 17.4447C43.4803 17.2207 43.7043 16.8313 43.9176 16.2767L47.5816 6.80466C47.7096 6.81533 47.8483 6.82066 47.9976 6.82066C48.147 6.82066 48.2856 6.81533 48.4136 6.80466ZM49.8056 13.5727V13.8927H45.0376L45.1976 13.5727H49.8056ZM62.898 6.80466L66.786 16.8367C66.946 17.2207 67.1167 17.4873 67.298 17.6367C67.49 17.7753 67.666 17.85 67.826 17.8607V18.1807C67.5487 18.1593 67.2127 18.1487 66.818 18.1487C66.434 18.138 66.0393 18.1327 65.634 18.1327C65.1647 18.1327 64.7273 18.138 64.322 18.1487C63.9167 18.1487 63.586 18.1593 63.33 18.1807V17.8607C63.874 17.8393 64.2207 17.7487 64.37 17.5887C64.5193 17.418 64.4873 17.0607 64.274 16.5167L61.458 8.91666L61.746 8.56466L59.186 15.2047C58.9833 15.738 58.8607 16.1753 58.818 16.5167C58.7753 16.858 58.802 17.1247 58.898 17.3167C58.994 17.5087 59.154 17.6473 59.378 17.7327C59.602 17.8073 59.8793 17.85 60.21 17.8607V18.1807C59.8687 18.1593 59.538 18.1487 59.218 18.1487C58.898 18.138 58.578 18.1327 58.258 18.1327C58.0233 18.1327 57.7993 18.138 57.586 18.1487C57.3833 18.1487 57.202 18.1593 57.042 18.1807V17.8607C57.2767 17.8073 57.506 17.6687 57.73 17.4447C57.9647 17.2207 58.1887 16.8313 58.402 16.2767L62.066 6.80466C62.194 6.81533 62.3327 6.82066 62.482 6.82066C62.6313 6.82066 62.77 6.81533 62.898 6.80466ZM64.29 13.5727V13.8927H59.522L59.682 13.5727H64.29ZM80.587 6.85266V7.17266C80.3737 7.23666 80.1497 7.402 79.915 7.66866C79.6803 7.92466 79.4243 8.32466 79.147 8.86866L76.059 14.9967H75.467L71.723 8.08466C71.5203 7.71133 71.3443 7.47133 71.195 7.36466C71.0457 7.24733 70.9123 7.18866 70.795 7.18866V6.85266C71.051 6.86333 71.3177 6.87933 71.595 6.90066C71.883 6.91133 72.1923 6.91666 72.523 6.91666C72.9497 6.91666 73.4083 6.91133 73.899 6.90066C74.3897 6.89 74.8483 6.874 75.275 6.85266V7.18866C75.0083 7.18866 74.7683 7.21 74.555 7.25266C74.3417 7.29533 74.1977 7.386 74.123 7.52466C74.0483 7.66333 74.075 7.866 74.203 8.13266L76.795 13.0927L76.411 13.5407L78.235 9.92466C78.587 9.22066 78.7683 8.67133 78.779 8.27666C78.8003 7.882 78.6883 7.60466 78.443 7.44466C78.2083 7.274 77.8723 7.18333 77.435 7.17266V6.85266C77.787 6.86333 78.1177 6.874 78.427 6.88466C78.747 6.89533 79.0617 6.90066 79.371 6.90066C79.627 6.90066 79.851 6.89533 80.043 6.88466C80.2457 6.874 80.427 6.86333 80.587 6.85266ZM77.035 12.7407V16.4847C77.035 16.8687 77.067 17.1567 77.131 17.3487C77.195 17.5407 77.3123 17.6687 77.483 17.7327C77.6643 17.7967 77.9257 17.8393 78.267 17.8607V18.1807C78.0003 18.1593 77.6537 18.1487 77.227 18.1487C76.8003 18.138 76.3737 18.1327 75.947 18.1327C75.4883 18.1327 75.0457 18.138 74.619 18.1487C74.203 18.1487 73.867 18.1593 73.611 18.1807V17.8607C73.963 17.8393 74.2243 17.7967 74.395 17.7327C74.5763 17.6687 74.6937 17.5407 74.747 17.3487C74.811 17.1567 74.843 16.8687 74.843 16.4847V13.2047L76.059 14.1967L77.035 12.7407ZM89.4605 6.80466L93.3485 16.8367C93.5085 17.2207 93.6792 17.4873 93.8605 17.6367C94.0525 17.7753 94.2285 17.85 94.3885 17.8607V18.1807C94.1112 18.1593 93.7752 18.1487 93.3805 18.1487C92.9965 18.138 92.6018 18.1327 92.1965 18.1327C91.7272 18.1327 91.2898 18.138 90.8845 18.1487C90.4792 18.1487 90.1485 18.1593 89.8925 18.1807V17.8607C90.4365 17.8393 90.7832 17.7487 90.9325 17.5887C91.0818 17.418 91.0498 17.0607 90.8365 16.5167L88.0205 8.91666L88.3085 8.56466L85.7485 15.2047C85.5458 15.738 85.4232 16.1753 85.3805 16.5167C85.3378 16.858 85.3645 17.1247 85.4605 17.3167C85.5565 17.5087 85.7165 17.6473 85.9405 17.7327C86.1645 17.8073 86.4418 17.85 86.7725 17.8607V18.1807C86.4312 18.1593 86.1005 18.1487 85.7805 18.1487C85.4605 18.138 85.1405 18.1327 84.8205 18.1327C84.5858 18.1327 84.3618 18.138 84.1485 18.1487C83.9458 18.1487 83.7645 18.1593 83.6045 18.1807V17.8607C83.8392 17.8073 84.0685 17.6687 84.2925 17.4447C84.5272 17.2207 84.7512 16.8313 84.9645 16.2767L88.6285 6.80466C88.7565 6.81533 88.8952 6.82066 89.0445 6.82066C89.1938 6.82066 89.3325 6.81533 89.4605 6.80466ZM90.8525 13.5727V13.8927H86.0845L86.2445 13.5727H90.8525Z" fill="#6B1929"/>
<path d="M112.431 12.8904H109.883V19.4424H108.947V12.8904H106.399V12.0584H112.431V12.8904ZM123.073 12.0584V19.4424H122.137V16.0832H118.071V19.4424H117.135V12.0584H118.071V15.2512H122.137V12.0584H123.073ZM128.484 19.4424V12.0584H131.645C131.971 12.0584 132.269 12.1277 132.54 12.2664C132.81 12.3981 133.046 12.5784 133.247 12.8072C133.448 13.029 133.604 13.2821 133.715 13.5664C133.826 13.8437 133.881 14.128 133.881 14.4192C133.881 14.7589 133.815 15.0813 133.684 15.3864C133.559 15.6914 133.378 15.9514 133.143 16.1664C132.914 16.3813 132.644 16.5304 132.332 16.6136L134.12 19.4424H133.06L131.375 16.7904H129.42V19.4424H128.484ZM129.42 15.9584H131.656C131.912 15.9584 132.134 15.889 132.321 15.7504C132.515 15.6048 132.664 15.4141 132.768 15.1784C132.879 14.9426 132.935 14.6896 132.935 14.4192C132.935 14.1418 132.872 13.8888 132.748 13.66C132.623 13.4242 132.46 13.237 132.259 13.0984C132.058 12.9597 131.836 12.8904 131.593 12.8904H129.42V15.9584ZM143.971 18.6104V19.4424H138.959V12.0584H143.878V12.8904H139.895V15.2824H143.358V16.0624H139.895V18.6104H143.971ZM151.142 12.0584H151.932L154.948 19.4424H153.95L153.076 17.2792H149.977L149.114 19.4424H148.116L151.142 12.0584ZM152.868 16.5512L151.537 13.14L150.164 16.5512H152.868ZM159.574 19.4424V12.0584H162.132C162.923 12.0584 163.581 12.2248 164.108 12.5576C164.642 12.8834 165.041 13.3272 165.304 13.8888C165.568 14.4434 165.699 15.0605 165.699 15.74C165.699 16.4888 165.554 17.1405 165.263 17.6952C164.971 18.2498 164.559 18.6797 164.025 18.9848C163.491 19.2898 162.86 19.4424 162.132 19.4424H159.574ZM164.753 15.74C164.753 15.1853 164.649 14.693 164.441 14.2632C164.24 13.8333 163.945 13.497 163.557 13.2544C163.169 13.0117 162.694 12.8904 162.132 12.8904H160.51V18.6104H162.132C162.701 18.6104 163.179 18.4856 163.567 18.236C163.956 17.9794 164.25 17.6362 164.451 17.2064C164.653 16.7696 164.753 16.2808 164.753 15.74ZM174.995 13.608C174.912 13.5109 174.801 13.4173 174.662 13.3272C174.524 13.237 174.368 13.1573 174.194 13.088C174.021 13.0117 173.83 12.9528 173.622 12.9112C173.421 12.8626 173.21 12.8384 172.988 12.8384C172.419 12.8384 172 12.9458 171.73 13.1608C171.459 13.3757 171.324 13.6704 171.324 14.0448C171.324 14.3082 171.393 14.5162 171.532 14.6688C171.671 14.8213 171.882 14.9461 172.166 15.0432C172.458 15.1402 172.825 15.2408 173.269 15.3448C173.782 15.4557 174.226 15.5909 174.6 15.7504C174.974 15.9098 175.262 16.1248 175.463 16.3952C175.664 16.6586 175.765 17.0122 175.765 17.456C175.765 17.8096 175.695 18.1181 175.557 18.3816C175.425 18.6381 175.238 18.853 174.995 19.0264C174.753 19.1928 174.468 19.3176 174.142 19.4008C173.817 19.477 173.463 19.5152 173.082 19.5152C172.707 19.5152 172.34 19.477 171.979 19.4008C171.626 19.3176 171.289 19.1997 170.97 19.0472C170.651 18.8946 170.353 18.704 170.076 18.4752L170.523 17.6848C170.634 17.8026 170.776 17.9205 170.95 18.0384C171.13 18.1493 171.331 18.2533 171.553 18.3504C171.782 18.4474 172.028 18.5272 172.291 18.5896C172.555 18.645 172.825 18.6728 173.102 18.6728C173.629 18.6728 174.038 18.5792 174.33 18.392C174.621 18.1978 174.766 17.917 174.766 17.5496C174.766 17.2722 174.683 17.0504 174.517 16.884C174.357 16.7176 174.118 16.5789 173.799 16.468C173.48 16.357 173.092 16.2461 172.634 16.1352C172.135 16.0104 171.716 15.8752 171.376 15.7296C171.036 15.577 170.78 15.3794 170.606 15.1368C170.44 14.8941 170.357 14.5786 170.357 14.1904C170.357 13.7189 170.471 13.3202 170.7 12.9944C170.929 12.6685 171.244 12.4224 171.646 12.256C172.049 12.0896 172.503 12.0064 173.009 12.0064C173.342 12.0064 173.65 12.041 173.934 12.1104C174.226 12.1797 174.496 12.2768 174.746 12.4016C174.995 12.5264 175.224 12.6754 175.432 12.8488L174.995 13.608Z" fill="#B8963E"/>
</svg>
